<svg width="1600" height="900" viewBox="0 0 1600 900" fill="none" xmlns="http://www.w3.org/2000/svg">
  <defs>
    <radialGradient id="skyGlow" cx="50%" cy="35%" r="72%">
      <stop offset="0%" stop-color="#2E3B91"/>
      <stop offset="42%" stop-color="#11183D"/>
      <stop offset="100%" stop-color="#050714"/>
    </radialGradient>

    <radialGradient id="goldGlow" cx="76%" cy="18%" r="38%">
      <stop offset="0%" stop-color="#FFD98A" stop-opacity="0.72"/>
      <stop offset="54%" stop-color="#D6A84F" stop-opacity="0.18"/>
      <stop offset="100%" stop-color="#D6A84F" stop-opacity="0"/>
    </radialGradient>

    <radialGradient id="violetGlow" cx="18%" cy="28%" r="42%">
      <stop offset="0%" stop-color="#A98CFF" stop-opacity="0.50"/>
      <stop offset="55%" stop-color="#A98CFF" stop-opacity="0.12"/>
      <stop offset="100%" stop-color="#A98CFF" stop-opacity="0"/>
    </radialGradient>

    <filter id="blur">
      <feGaussianBlur stdDeviation="38"/>
    </filter>

    <filter id="starGlow">
      <feGaussianBlur stdDeviation="2.2" result="blur"/>
      <feMerge>
        <feMergeNode in="blur"/>
        <feMergeNode in="SourceGraphic"/>
      </feMerge>
    </filter>
  </defs>

  <rect width="1600" height="900" fill="url(#skyGlow)"/>
  <rect width="1600" height="900" fill="url(#goldGlow)"/>
  <rect width="1600" height="900" fill="url(#violetGlow)"/>

  <circle cx="1230" cy="170" r="190" fill="#FFD98A" opacity="0.09" filter="url(#blur)"/>
  <circle cx="250" cy="260" r="230" fill="#A98CFF" opacity="0.10" filter="url(#blur)"/>

  <g filter="url(#starGlow)">
    <circle cx="126" cy="120" r="2.2" fill="#FFF8E7"/>
    <circle cx="232" cy="205" r="1.7" fill="#FFD98A"/>
    <circle cx="352" cy="94" r="1.4" fill="#FFF8E7"/>
    <circle cx="488" cy="170" r="2" fill="#FFFFFF"/>
    <circle cx="620" cy="78" r="1.5" fill="#FFD98A"/>
    <circle cx="742" cy="215" r="2.4" fill="#FFF8E7"/>
    <circle cx="914" cy="118" r="1.6" fill="#FFFFFF"/>
    <circle cx="1058" cy="196" r="2.1" fill="#FFD98A"/>
    <circle cx="1208" cy="82" r="1.8" fill="#FFFFFF"/>
    <circle cx="1378" cy="154" r="2.6" fill="#FFF8E7"/>
    <circle cx="1480" cy="86" r="1.5" fill="#FFD98A"/>

    <circle cx="94" cy="382" r="1.6" fill="#FFF8E7"/>
    <circle cx="260" cy="462" r="2.5" fill="#FFFFFF"/>
    <circle cx="430" cy="336" r="1.8" fill="#FFD98A"/>
    <circle cx="585" cy="420" r="1.3" fill="#FFF8E7"/>
    <circle cx="758" cy="350" r="2.1" fill="#FFFFFF"/>
    <circle cx="930" cy="475" r="1.7" fill="#FFD98A"/>
    <circle cx="1112" cy="360" r="2.2" fill="#FFF8E7"/>
    <circle cx="1290" cy="450" r="1.5" fill="#FFFFFF"/>
    <circle cx="1458" cy="330" r="2.1" fill="#FFD98A"/>

    <circle cx="160" cy="700" r="1.8" fill="#FFFFFF"/>
    <circle cx="338" cy="635" r="2.2" fill="#FFD98A"/>
    <circle cx="520" cy="760" r="1.5" fill="#FFF8E7"/>
    <circle cx="690" cy="650" r="2.1" fill="#FFFFFF"/>
    <circle cx="860" cy="720" r="1.7" fill="#FFD98A"/>
    <circle cx="1042" cy="635" r="2.4" fill="#FFF8E7"/>
    <circle cx="1230" cy="742" r="1.4" fill="#FFFFFF"/>
    <circle cx="1438" cy="650" r="2.3" fill="#FFD98A"/>
  </g>

  <g opacity="0.9">
    <path d="M1180 260L1194 294L1230 300L1204 325L1212 360L1180 342L1148 360L1156 325L1130 300L1166 294L1180 260Z" fill="#FFD98A"/>
    <path d="M380 255L390 279L416 283L397 301L402 327L380 314L358 327L363 301L344 283L370 279L380 255Z" fill="#FFF8E7"/>
    <path d="M1320 585L1330 608L1355 612L1337 630L1342 655L1320 642L1298 655L1303 630L1285 612L1310 608L1320 585Z" fill="#A98CFF"/>
  </g>

  <rect x="92" y="594" width="560" height="170" rx="54" fill="white" fill-opacity="0.08" stroke="white" stroke-opacity="0.16"/>
  <text x="132" y="662" fill="#FFF8E7" font-family="Inter, Arial, sans-serif" font-size="22" letter-spacing="5">IRIS THEME</text>
  <text x="132" y="724" fill="white" font-family="Georgia, serif" font-size="64" letter-spacing="-4">Festive Stars</text>
</svg>
